<?xml version="1.0" standalone="no"?>
<!DOCTYPE svg PUBLIC "-//W3C//DTD SVG 20010904//EN"
 "http://www.w3.org/TR/2001/REC-SVG-20010904/DTD/svg10.dtd">
<svg version="1.0" xmlns="http://www.w3.org/2000/svg"
 width="1024.000000pt" height="1024.000000pt" viewBox="0 0 1024.000000 1024.000000"
 preserveAspectRatio="xMidYMid meet">

<g transform="translate(0.000000,1024.000000) scale(0.100000,-0.100000)"
fill="#000000" stroke="none">
<path d="M0 5120 l0 -5120 5120 0 5120 0 0 5120 0 5120 -5120 0 -5120 0 0
-5120z m5510 3355 c438 -47 824 -162 1235 -367 153 -77 180 -92 350 -203 463
-302 863 -748 1101 -1227 26 -54 46 -99 44 -101 -5 -4 -100 -53 -535 -277 -99
-51 -189 -99 -200 -107 -11 -7 -25 -13 -32 -13 -7 0 -36 46 -64 103 -192 382
-451 667 -836 921 -322 213 -674 346 -1063 403 -157 22 -576 25 -715 5 -378
-57 -733 -187 -1049 -384 -259 -162 -525 -419 -713 -688 -193 -277 -312 -538
-392 -855 -53 -213 -65 -324 -65 -590 0 -318 21 -472 105 -762 128 -444 413
-881 789 -1208 291 -253 690 -464 1051 -556 476 -120 1004 -96 1455 66 246 89
541 254 752 422 113 90 362 335 449 443 70 87 244 343 264 389 8 17 16 31 20
31 3 0 173 -83 377 -185 l373 -185 -22 -42 c-310 -611 -870 -1167 -1499 -1487
-479 -245 -978 -361 -1550 -361 -702 0 -1346 191 -1925 568 -87 57 -267 192
-331 248 -260 229 -434 428 -622 709 -286 427 -456 889 -539 1460 -24 169 -24
647 1 825 101 732 389 1369 858 1896 281 315 608 566 1003 769 238 122 600
247 855 294 63 12 135 26 160 31 39 7 159 20 320 34 90 8 448 -4 590 -19z
m-205 -1535 c609 -58 1097 -346 1422 -841 35 -53 63 -103 63 -111 0 -7 -64
-46 -142 -87 -79 -41 -246 -127 -371 -192 -126 -66 -232 -119 -237 -119 -5 0
-21 21 -34 48 -36 69 -162 215 -235 272 -91 70 -223 136 -338 167 -85 24 -117
27 -248 27 -226 1 -387 -44 -555 -157 -236 -158 -388 -373 -456 -647 -29 -113
-26 -365 4 -477 105 -389 403 -677 785 -758 184 -40 455 -7 619 75 188 94 290
181 455 388 l18 22 370 -184 c204 -101 379 -191 390 -199 19 -15 19 -16 -20
-73 -60 -88 -201 -249 -295 -337 -373 -351 -836 -537 -1335 -537 -241 0 -446
33 -655 105 -368 126 -695 364 -921 670 -144 195 -262 472 -312 735 -18 97
-21 151 -22 340 0 236 6 292 52 475 83 333 292 691 524 897 111 99 121 107
242 188 259 176 559 279 907 313 78 8 221 6 325 -3z"/>
</g>
</svg>
